<?xml version="1.0" encoding="utf-8"?>
<!-- Generator: Adobe Illustrator 21.1.0, SVG Export Plug-In . SVG Version: 6.00 Build 0)  -->
<svg version="1.1" xmlns="http://www.w3.org/2000/svg" xmlns:xlink="http://www.w3.org/1999/xlink" x="0px" y="0px"
	 viewBox="0 0 802.2 957.4" style="enable-background:new 0 0 802.2 957.4;" xml:space="preserve">
<style type="text/css">
	.st0{fill:#C73260;stroke:#FFFFFF;stroke-width:10;stroke-miterlimit:10;}
	.st1{fill:#186593;stroke:#FFFFFF;stroke-width:10;stroke-miterlimit:10;}
</style>
<g id="Layer_1">
	<title>logo</title>
	<path class="st0" d="M269.4,339.8H105.3c-20,0-30,24.1-15.9,38.3l72.4,72.5c10,10,23.5,15.6,37.6,15.6h70V339.8z"/>
	<path class="st1" d="M650.2,201.4l-90.4-90.9c-10.2-10.2-24-16-38.5-16h-389c-27.4,0-41.1,33.1-21.7,52.5l69.4,69.4
		c3.2,3.2,5,7.5,5,12v490.3c0,25.2,20.5,45.7,45.7,45.7h82V618.4c0-0.1,0-0.2,0-0.2L310.4,252c0-31.5-2.9-29.7,29.5-29.7h122.3
		c13.9,0,27.4,5.2,37.7,14.5l25.9,23.5c11.6,10.5,18.2,25.5,18.2,41.1v47.2c0,6.4,5.2,11.6,11.6,11.6h104.6
		c6.4,0,11.6-5.2,11.6-11.6v-95C671.9,234.1,664.1,215.3,650.2,201.4z"/>
	<path class="st1" d="M544,502.3v61.8c0,8.5-3.4,16.7-9.5,22.7L493.8,627c-6.2,6.1-14.5,9.5-23.2,9.5h-94.5v127.8h143.6
		c15.6,0,30.6-6.1,41.6-17.1l92.9-91.6c11.3-11.1,17.6-26.3,17.6-42.2V502.3H544z"/>
	<path class="st0" d="M753,430.6l-72.4-72.5c-10-10-23.5-15.6-37.6-15.6H346.3v237.1h0l0,224.5c0,8.9,3.5,17.4,9.7,23.7l79.8,80.5
		c13.7,13.8,37.1,4,37.1-15.5l-0.4-420.4c0-2,1.6-3.6,3.6-3.6h260.9C757.1,468.9,767.1,444.7,753,430.6z"/>
</g>
<g id="Layer_2">
</g>
</svg>
