<?xml version="1.0" encoding="utf-8"?>
<!-- Generator: Adobe Illustrator 21.1.0, SVG Export Plug-In . SVG Version: 6.00 Build 0)  -->
<svg version="1.1" id="Layer_1" xmlns="http://www.w3.org/2000/svg" xmlns:xlink="http://www.w3.org/1999/xlink" x="0px" y="0px"
	 viewBox="0 0 802.2 957.4" style="enable-background:new 0 0 802.2 957.4;" xml:space="preserve">
<style type="text/css">
	.st0{fill:url(#SVGID_1_);stroke:#FFFFFF;stroke-width:10;stroke-miterlimit:10;}
	.st1{fill:url(#SVGID_2_);stroke:#FFFFFF;stroke-width:10;stroke-miterlimit:10;}
	.st2{fill:url(#SVGID_3_);stroke:#FFFFFF;stroke-width:10;stroke-miterlimit:10;}
	.st3{fill:#C73260;stroke:#FFFFFF;stroke-width:10;stroke-miterlimit:10;}
	.st4{fill:#186593;}
</style>
<linearGradient id="SVGID_1_" gradientUnits="userSpaceOnUse" x1="541.3" y1="456" x2="786.3723" y2="456" gradientTransform="matrix(1 0 0 -1 0 840)">
	<stop  offset="0" style="stop-color:#C73260"/>
	<stop  offset="0.3324" style="stop-color:#000000"/>
	<stop  offset="0.3704" style="stop-color:#130509"/>
	<stop  offset="0.4477" style="stop-color:#461222"/>
	<stop  offset="0.5565" style="stop-color:#962648"/>
	<stop  offset="0.6189" style="stop-color:#C73260"/>
	<stop  offset="0.9461" style="stop-color:#C73260"/>
	<stop  offset="1" style="stop-color:#C73260"/>
</linearGradient>
<path class="st0" d="M761.8,315.2H541.3v137.6h118.1c15.4,0,30.1-6.2,41-17l78.9-79C794.5,341.4,783.6,315.2,761.8,315.2z"/>
<title>logo</title>
<linearGradient id="SVGID_2_" gradientUnits="userSpaceOnUse" x1="127.4" y1="221.5" x2="401.5" y2="221.5" gradientTransform="matrix(1 0 0 -1 0 840)">
	<stop  offset="0.6217" style="stop-color:#186593"/>
	<stop  offset="0.7865" style="stop-color:#20313D"/>
	<stop  offset="0.8351" style="stop-color:#222428"/>
	<stop  offset="0.8784" style="stop-color:#186593"/>
	<stop  offset="1" style="stop-color:#186593"/>
</linearGradient>
<path class="st1" d="M266.2,605.6l-0.8-112.8c-0.1-11.3-9.3-20.5-20.6-20.5h-96.4c-11.4,0-20.6,9.2-20.6,20.6l-0.4,204.8
	c0,41.6,23.7,67,67,67h186.5c11.4,0,20.6-9.2,20.6-20.6v-97.7c0-11.4-9.2-20.6-20.6-20.6h-94.4C275.2,625.6,266.2,616.7,266.2,605.6
	z"/>
<linearGradient id="SVGID_3_" gradientUnits="userSpaceOnUse" x1="344.007" y1="82.4697" x2="344.007" y2="805" gradientTransform="matrix(1 0 0 -1 0 840)">
	<stop  offset="0.5676" style="stop-color:#186593"/>
	<stop  offset="0.6081" style="stop-color:#222428"/>
	<stop  offset="0.6838" style="stop-color:#186593"/>
	<stop  offset="1" style="stop-color:#186593"/>
</linearGradient>
<path class="st2" d="M651.8,213.1c0-24.3-9.7-47.7-26.8-64.8l-95.2-95.8c-11.1-11.2-26.1-17.5-42-17.5H69.6
	c-29.9,0-44.8,36-23.7,57.2l75.6,75.6c3.5,3.5,5.4,8.1,5.4,13.1v161.7H264l-0.5-135.9c0-32.8,2.1-32.3,32.1-32.3c0,0,0,0,0.1,0
	h127.7c15.2,0,29.8,5.6,41.1,15.8l28.2,25.6c12.6,11.4,19.9,27.8,19.9,44.8l0.1,477.6c0,5.1,3.5,13.1,7.1,15.3
	c10.4,6.7,24.1,5.1,34.3-5.2l79-78.9c10.9-10.9,18.9-25.6,18.9-41V213.1H651.8z"/>
<g id="Layer_2">
</g>
<path class="st3" d="M491,352.6c0.1-21-16.9-38.1-38-38.1H52c-21.7,0-32.6,26.2-17.2,41.6l78.9,79c10.9,10.9,25.6,16.9,41,16.9
	h191.9c2.2,0,4,1.8,4,4l-0.8,439.6c0,21.7,27,32.6,42.8,17.4l81.1-78.9c11.2-10.9,17.5-25.6,17.5-41L491,352.6z"/>
<rect x="518" y="262.2" class="st4" width="128.8" height="125.9"/>
</svg>
