<?xml version="1.0" encoding="utf-8"?>
<!-- Generator: Adobe Illustrator 21.0.0, SVG Export Plug-In . SVG Version: 6.00 Build 0)  -->
<svg version="1.1" id="Layer_1" xmlns="http://www.w3.org/2000/svg" xmlns:xlink="http://www.w3.org/1999/xlink" x="0px" y="0px"
	 viewBox="0 0 802.2 957.4" style="enable-background:new 0 0 802.2 957.4;" xml:space="preserve">
<style type="text/css">
	.st0{fill:#FFFFFF;}
</style>
<g>
	<g>
		<path class="st0" d="M556,447.8V339.5h205.6c4.2,0,7.5,2.2,9.2,6.1c1.6,3.9,0.9,7.7-2.1,10.7L690,435.1
			c-8.3,8.2-19.2,12.7-30.7,12.7L556,447.8L556,447.8z"/>
		<path class="st0" d="M761.6,345.5c1.8,0,2.9,0.7,3.6,2.3c0.6,1.6,0.4,2.9-0.8,4.1l-78.7,78.8c-7.2,7.1-16.6,11-26.4,11H562v-96.3
			L761.6,345.5 M761.6,333.5H550v120.2v0.1h109.3c13.1,0,25.5-5.2,34.9-14.5l78.8-78.9c4.6-4.7,5.8-11.1,3.3-17.2
			C773.7,337.1,768.2,333.5,761.6,333.5L761.6,333.5z"/>
	</g>
</g>
<rect x="530.2" y="271.9" class="st0" width="104.1" height="125.7"/>
<g>
	<path class="st0" d="M533.5,752c-0.3,0-0.6,0-0.9,0c-2.5-0.2-4.6-2-5.1-4.4c0-0.2-0.1-0.3-0.1-0.3l-0.1-476.9
		c0-21.1-9-41.4-24.7-55.6l-28.2-25.6c-14-12.6-32.1-19.6-50.8-19.6H293.4c-15.8,0-27.3,0-35.6,8.8c-8.5,8.9-8.5,21.8-8.5,38.1
		l0.5,115.2c0,1.6-0.6,3.1-1.7,4.2c-1.1,1.1-2.6,1.7-4.2,1.7h-86.4c-3.3,0-5.9-2.7-5.9-5.9V95.4c0-12.4,0.9-21.2,5.4-26.9
		c3-3.9,9.5-9,30.6-9H488c12,0,23.2,4.7,31.5,13.1l95.1,95.7c14.3,14.3,22.6,34.2,22.6,54.5v14.6h0.2v400.2
		c0,10.2-5.3,21.4-14.6,30.7l-78.9,78.8C540.7,750.3,537.1,752,533.5,752z"/>
	<path class="st0" d="M488,65.5c10.3,0,20,4,27.3,11.4l95.1,95.7c13.2,13.2,20.8,31.5,20.8,50.2v8.6v12h0.2v394.2
		c0,8.5-4.8,18.3-12.9,26.4l-78.9,78.8l-0.1,0.1l-0.1,0.1c-1.4,1.4-3.5,3.1-6,3.1h-0.1l-0.1-475.7c0-22.8-9.7-44.7-26.6-60
		l-28.2-25.6l0,0l0,0c-15.1-13.6-34.6-21.1-54.8-21.1H293.4c-16.7,0-29.8,0-40,10.6c-10.1,10.6-10.1,25.3-10.1,42.3l0.5,115.1h-86.2
		V95.4c0-9.3,0.5-18.6,4.1-23.2c3.5-4.5,12.2-6.7,25.8-6.7H488 M488,53.5H187.4c-38.2,0-41.9,16.3-41.9,41.9v236.3
		c0,6.6,5.3,11.9,11.9,11.9h86.4c6.6,0,11.9-5.4,11.9-12l-0.5-115.1c0-16.7,0.3-27.2,6.8-34c6.6-6.9,16.4-6.9,31.3-6.9h130.2
		c17.3,0,33.9,6.4,46.8,18l28.2,25.6c14.4,13,22.7,31.7,22.7,51.1l0.1,477c0,0.4,0.1,0.9,0.2,1.5c1.1,5,5.4,8.7,10.4,9.1
		c0.5,0,1,0.1,1.5,0.1c5.2,0,10.3-2.3,14.6-6.7l78.9-78.8c10.4-10.4,16.4-23.1,16.4-34.9V231.4h-0.2v-8.6c0-21.9-8.9-43.3-24.3-58.7
		l-95.1-95.7C514.3,58.8,501.6,53.5,488,53.5L488,53.5z"/>
</g>
<g>
	<path class="st0" d="M169.1,759.3c-9.6,0-17.6-10.8-17.6-17.6V505.8c0-7.6,0.9-9.5,9.4-9.5h84.4c3.2,0,6,2.7,6,6L252,615
		c0,19.1,15.2,34.3,34.6,34.7h76.9c13,0,23.6,10.6,23.6,23.6v62.4c0,13-10.6,23.6-23.6,23.6H169.1z"/>
	<path class="st0" d="M245.2,502.3C245.3,502.3,245.3,502.4,245.2,502.3L246,615c0,22.4,17.8,40.2,40.5,40.7h0.1h0.1h76.8
		c9.7,0,17.6,7.9,17.6,17.6v62.4c0,9.7-7.9,17.6-17.6,17.6H169.1c-6,0-11.6-8-11.6-11.6V505.8c0-1.6,0.1-2.6,0.2-3.3
		c0.6-0.1,1.6-0.2,3.2-0.2H245.2 M245.3,490.3h-84.4c-12.3,0-15.4,5.2-15.4,15.5v235.9c0,9.8,10.6,23.6,23.6,23.6h194.3
		c16.3,0,29.6-13.3,29.6-29.6v-62.4c0-16.3-13.3-29.6-29.6-29.6h-76.8c-16.1-0.3-28.7-12.9-28.7-28.7l-0.7-112.8
		C257.2,495.7,251.8,490.3,245.3,490.3L245.3,490.3z"/>
</g>
<g>
	<path class="st0" d="M375.5,914.4c-4.4,0-10.7-3-10.7-9.8l0.8-439c0-10.3-8.3-18.6-18.6-18.6H155.3c-11.6,0-22.5-4.5-30.7-12.6
		l-78.8-78.9c-3-3-3.8-6.8-2.1-10.6c1.6-3.9,4.8-6.1,9-6.1h400.5c6.3,0,12.1,2.4,16.6,6.8c4.4,4.5,6.8,10.4,6.7,16.5l0.2,440.1
		c0,11.4-4.7,22.2-13.1,30.5l-81,78.8C380.6,913.4,378.2,914.4,375.5,914.4z"/>
	<path class="st0" d="M453.2,344.8c4.6,0,9,1.8,12.3,5c3.3,3.4,5.1,7.6,5,12.2v0.1v0.1l0.2,440c0,9.8-4,19.1-11.3,26.2l-81,78.8
		c-0.6,0.6-1.4,1.2-2.9,1.2c0,0-4.7-0.1-4.7-3.8l0.8-439c0-13.6-11-24.6-24.6-24.6H155.3c-10,0-19.4-3.9-26.4-10.9l-78.8-78.9
		c-1.3-1.3-1.5-2.5-0.8-4v-0.1V347c0.6-1.6,1.7-2.3,3.4-2.3L453.2,344.8 M453.2,332.8H52.7c-6.6,0-12,3.6-14.5,9.7
		c-2.6,6.1-1.3,12.5,3.4,17.2l78.8,78.9c9.3,9.3,21.7,14.4,34.9,14.4H347c6.9,0,12.6,5.6,12.6,12.6l-0.8,439
		c0,9.9,8.5,15.8,16.7,15.8c3,0,7.4-0.8,11.3-4.6l81-78.8c9.6-9.4,14.9-21.7,14.9-34.8l-0.2-440c0.1-7.9-3-15.2-8.5-20.8
		C468.5,335.9,461.1,332.8,453.2,332.8L453.2,332.8z"/>
</g>
</svg>
