<?xml version="1.0" encoding="utf-8"?>
<!-- Generator: Adobe Illustrator 21.1.0, SVG Export Plug-In . SVG Version: 6.00 Build 0)  -->
<svg version="1.1" id="Layer_1" xmlns="http://www.w3.org/2000/svg" xmlns:xlink="http://www.w3.org/1999/xlink" x="0px" y="0px"
	 viewBox="0 0 802.2 957.4" style="enable-background:new 0 0 802.2 957.4;" xml:space="preserve">
<style type="text/css">
	.st0{fill:url(#SVGID_1_);}
	.st1{fill:#FFFFFF;}
	.st2{fill:url(#SVGID_2_);}
	.st3{fill:url(#SVGID_3_);}
	.st4{fill:#C73260;}
	.st5{fill:#186593;}
</style>
<g>
	
		<linearGradient id="SVGID_1_" gradientUnits="userSpaceOnUse" x1="550.0166" y1="633.5759" x2="777.6027" y2="633.5759" gradientTransform="matrix(1 0 0 1 0 -240)">
		<stop  offset="0" style="stop-color:#C73260"/>
		<stop  offset="0.392" style="stop-color:#333333"/>
		<stop  offset="0.4188" style="stop-color:#3B3336"/>
		<stop  offset="0.4616" style="stop-color:#53333D"/>
		<stop  offset="0.5149" style="stop-color:#783248"/>
		<stop  offset="0.5762" style="stop-color:#AC3258"/>
		<stop  offset="0.5919" style="stop-color:#BB325C"/>
		<stop  offset="0.6006" style="stop-color:#BC325C"/>
		<stop  offset="0.7559" style="stop-color:#C4325F"/>
		<stop  offset="1" style="stop-color:#C73260"/>
	</linearGradient>
	<path class="st0" d="M550,453.7V333.5h211.6c6.6,0,12.1,3.6,14.7,9.7c2.5,6.1,1.3,12.5-3.3,17.2l-78.8,78.9
		c-9.4,9.3-21.8,14.5-34.9,14.5H550z"/>
	<path class="st1" d="M761.6,342.1c4.2,0,6,2.8,6.7,4.4c0.7,1.6,1.4,4.8-1.5,7.8l-78.7,78.8c-7.8,7.7-18,12-28.8,12H558.6v-103
		H761.6 M761.6,324.9H541.4v137.4h118c15.4,0,30.1-6.2,41-17l78.8-78.9C794.3,351,783.4,324.9,761.6,324.9L761.6,324.9z"/>
</g>
<g>
	<linearGradient id="SVGID_2_" gradientUnits="userSpaceOnUse" x1="46.5405" y1="627.791" x2="393.1743" y2="627.791">
		<stop  offset="0.7136" style="stop-color:#186593"/>
		<stop  offset="0.8946" style="stop-color:#333333"/>
		<stop  offset="1" style="stop-color:#186593"/>
		<stop  offset="1" style="stop-color:#186593"/>
	</linearGradient>
	<path class="st2" d="M194.9,765.2c-2.1,0-4.3-0.1-6.4-0.2c-0.5,0-0.9-0.1-1.4-0.1H62.5c-6.6,0-12.1-3.6-14.7-9.7
		c-2.5-6.1-1.3-12.5,3.3-17.2l78.8-78.9c4.3-4.3,6.8-10.3,6.8-16.4l0.3-140.4c0-6.6,5.4-12,12-12h96.3c6.5,0,11.9,5.4,12,11.9
		L258,615c0,15.8,12.6,28.4,28.7,28.7l80.4,0c14.3,0,26,11.7,26,26v69.6c0,14.3-11.7,26-26,26H194.9z"/>
	<path class="st1" d="M245.3,499c1.8,0,3.3,1.6,3.4,3.4l0.8,112.6c0,20.6,16.4,36.9,37.2,37.3l0.2,0h0.2h80.3
		c9.6,0,17.4,7.8,17.4,17.4v69.6c0,9.6-7.8,17.4-17.4,17.4H194.9c-1.9,0-3.9-0.1-5.8-0.2c-0.7,0-1.4-0.1-2-0.1H62.5
		c-4.2,0-6-2.8-6.7-4.4c-0.7-1.6-1.4-4.8,1.5-7.8l78.7-78.8c5.9-5.9,9.4-14.1,9.4-22.5l0.3-140.5c0-1.9,1.5-3.4,3.4-3.4H245.3
		 M245.3,481.8H149c-11.4,0-20.6,9.2-20.6,20.6l-0.3,140.4c0,3.9-1.6,7.6-4.3,10.3L45,732c-15.2,15.4-4.3,41.5,17.5,41.5h124.6
		c0.3,0,0.6,0,0.8,0c2.3,0.2,4.6,0.2,7,0.2h172.3c19.1,0,34.6-15.5,34.6-34.6v-69.6c0-19.1-15.5-34.6-34.6-34.6h-80.3
		c-11.3-0.2-20.3-9.1-20.3-20.2l-0.8-112.7C265.7,491,256.6,481.8,245.3,481.8L245.3,481.8z"/>
</g>
<g>
	
		<linearGradient id="SVGID_3_" gradientUnits="userSpaceOnUse" x1="344.3714" y1="998.0459" x2="344.3714" y2="293.606" gradientTransform="matrix(1 0 0 1 0 -240)">
		<stop  offset="0.5676" style="stop-color:#186593"/>
		<stop  offset="0.6081" style="stop-color:#333333"/>
		<stop  offset="0.6838" style="stop-color:#186593"/>
		<stop  offset="1" style="stop-color:#186593"/>
	</linearGradient>
	<path class="st3" d="M533.5,758c-3.1,0-6.2-0.9-8.9-2.6c-1.3-1.2-3.2-5.8-3.2-8.1l-0.1-477c0-19.4-8.3-38.1-22.7-51.1l-28.2-25.6
		c-12.9-11.6-29.5-18-46.8-18l-130.2,0c-14.9,0-24.7,0-31.3,6.9c-6.5,6.8-6.8,17.3-6.8,34l0.5,127.1H136.1V190.7
		c0-7.3-2.8-14.1-7.9-19.2L52.7,96c-8.7-8.7-8.5-19.7-5.4-27.2c3.1-7.4,10.7-15.3,23-15.3H488c13.6,0,26.3,5.3,35.8,14.9l95.1,95.7
		c15.4,15.4,24.3,36.8,24.3,58.7v8.6h0.2v406.2c0,11.8-6,24.5-16.4,34.9l-78.9,78.8C543.8,755.7,538.7,758,533.5,758
		C533.5,758,533.5,758,533.5,758z"/>
	<path class="st1" d="M488,62.2c11.3,0,21.8,4.4,29.7,12.4l95.1,95.7l0,0l0,0c13.8,13.8,21.7,33,21.7,52.6v17.2h0.2v397.6
		c0,9.5-5,20-13.8,28.8L542,745.3l0,0l0,0c-2.6,2.7-5.6,4.1-8.4,4.1c-1,0-1.9-0.2-2.9-0.5c-0.3-0.6-0.5-1.4-0.6-1.9L530,270.3
		c0-21.9-9.3-42.8-25.5-57.5l-28.2-25.6c-14.4-13-33.1-20.2-52.6-20.2H296.1H296l-1.3,0l-1.3,0c-15.8,0-28.3,0-37.5,9.5
		c-9.2,9.6-9.2,23.7-9.2,40v0l0,0l0.4,118.5H144.7V190.7c0-9.6-3.7-18.5-10.4-25.3L58.8,90c-7.2-7.2-4.5-15.4-3.6-17.8
		c1-2.3,4.9-10,15-10H488 M488,45H70.3c-29.9,0-44.7,36-23.7,57.1l75.5,75.5c3.5,3.5,5.4,8.1,5.4,13.1v161.5h136.9l-0.5-135.7
		c0-31.8,2-32.3,29.5-32.3c0.8,0,1.7,0,2.6,0c0,0,0,0,0.1,0h127.5c15.2,0,29.8,5.6,41.1,15.8l28.2,25.6
		c12.6,11.4,19.9,27.8,19.9,44.7l0.1,477c0,5.1,3.5,13.1,7.1,15.3c4.2,2.7,8.8,4,13.6,4c7.2,0,14.5-3,20.7-9.2l78.9-78.8
		c10.9-10.9,18.9-25.6,18.9-41V222.9h-0.2c0-24.3-9.7-47.6-26.8-64.7l-95.1-95.7C518.8,51.3,503.9,45,488,45L488,45z"/>
</g>
<g>
	<path class="st4" d="M375.5,920.4c-8.2,0-16.7-5.9-16.7-15.8l0.8-439c0-7-5.7-12.6-12.6-12.6H155.3c-13.2,0-25.6-5.1-34.9-14.4
		l-78.8-78.9c-4.7-4.7-6-11.1-3.4-17.2c2.5-6.1,7.9-9.7,14.5-9.7h400.5c7.9,0,15.3,3.1,20.8,8.6c5.5,5.6,8.6,12.9,8.5,20.8l0.2,440
		c0,13.1-5.3,25.4-14.9,34.8l-81,78.8C382.9,919.6,378.5,920.4,375.5,920.4C375.5,920.4,375.5,920.4,375.5,920.4z"/>
	<path class="st1" d="M453.2,341.4c5.6,0,10.8,2.2,14.7,6.1c3.9,3.9,6,9.1,6,14.7l0,0v0l0.2,440c0,10.8-4.4,20.9-12.3,28.6l-81,78.8
		c-1.6,1.5-3.4,2.2-5.5,2.2c-3.4,0-8.1-2.2-8.1-7.2l0.8-439.1c0-11.7-9.5-21.2-21.2-21.2H155.3c-10.9,0-21.1-4.2-28.8-11.8
		l-78.8-78.9c-3-3-2.3-6.1-1.6-7.8c0.7-1.6,2.4-4.4,6.6-4.4H453.2 M453.2,324.2H52.7c-21.7,0-32.6,26.2-17.2,41.5l78.8,78.9
		c10.9,10.9,25.6,16.9,41,16.9h191.7c2.2,0,4,1.8,4,4l-0.8,439.1c0,14.7,12.4,24.4,25.3,24.4c6.1,0,12.3-2.2,17.4-7.1l81-78.8
		c11.2-10.9,17.5-25.6,17.5-41l-0.2-440C491.3,341.2,474.3,324.2,453.2,324.2L453.2,324.2z"/>
</g>
<rect x="530.2" y="271.9" class="st5" width="104.1" height="125.7"/>
</svg>
