<?xml version="1.0" encoding="utf-8"?>
<!-- Generator: Adobe Illustrator 21.1.0, SVG Export Plug-In . SVG Version: 6.00 Build 0)  -->
<svg version="1.1" id="Layer_1" xmlns="http://www.w3.org/2000/svg" xmlns:xlink="http://www.w3.org/1999/xlink" x="0px" y="0px"
	 viewBox="0 0 802.2 957.4" style="enable-background:new 0 0 802.2 957.4;" xml:space="preserve">
<style type="text/css">
	.st0{fill:#FFFFFF;stroke:#C73260;stroke-width:12;stroke-miterlimit:10;}
	.st1{fill:#186593;}
	.st2{fill:#FFFFFF;}
</style>
<path class="st0" d="M761.8,315.2H541.3v137.6h118.1c15.4,0,30.1-6.2,41-17l78.9-79C794.5,341.4,783.6,315.2,761.8,315.2z"/>
<title>logo</title>
<g>
	<path class="st1" d="M244.8,484.3c4.7,0,8.6,3.9,8.6,8.6l0.8,112.8c0,17.5,14.4,31.9,32,32l0.1,0h0.1h94.4c4.8,0,8.6,3.9,8.6,8.6
		v97.7c0,4.8-3.9,8.6-8.6,8.6H194.3c-18,0-31.8-4.8-41.2-14.3c-9.2-9.3-13.8-23-13.8-40.7l0.4-204.8c0-4.8,3.9-8.6,8.6-8.6H244.8
		 M244.8,472.3h-96.4c-11.4,0-20.6,9.2-20.6,20.6l-0.4,204.8c0,41.6,23.7,67,67,67h186.5c11.4,0,20.6-9.2,20.6-20.6v-97.7
		c0-11.4-9.2-20.6-20.6-20.6h-94.4c-11.1-0.1-20.1-9-20.1-20.1l-0.8-112.8C265.3,481.5,256.1,472.3,244.8,472.3L244.8,472.3z"/>
</g>
<g>
	<path class="st2" d="M533.4,751.6c-3.7,0-7.2-1.1-10.4-3.1l-0.1-0.1c-1.5-1-4.2-6.6-4.2-10.1l-0.1-477.6c0-18.7-8-36.7-21.9-49.3
		l-28.2-25.6c-12.4-11.2-28.4-17.4-45.1-17.4l-130.7,0c-14.1,0-23.4,0-29.2,6.1c-5.4,5.7-6,14.6-6,32.2l0.5,129.9H132.8V181
		c0-6.6-2.5-12.7-7.1-17.3L50.1,88.1c-9.6-9.6-9.4-21.8-5.9-30c3.4-8.2,11.9-16.9,25.4-16.9h418.2c14.3,0,27.7,5.6,37.7,15.7
		l95.2,95.8c15.9,15.9,25.1,38,25.1,60.6v6h0.1v409.5c0,12.4-6.2,25.8-17.1,36.7l-79,78.9C545,749,539.2,751.6,533.4,751.6
		C533.4,751.6,533.4,751.6,533.4,751.6z"/>
	<path class="st1" d="M487.8,47.1c12.7,0,24.5,4.9,33.4,13.9l95.2,95.8c14.8,14.8,23.3,35.3,23.3,56.3v12h0.1v403.5
		c0,10.9-5.6,22.7-15.4,32.5l-79,78.9c-3.7,3.7-8,5.7-12.2,5.7c-2.4,0-4.6-0.6-6.7-1.8c-0.9-1.2-2-4.2-2.1-5.4l-0.1-477.6
		c0-20.4-8.7-40-23.8-53.7l-28.2-25.6c-13.5-12.2-30.9-18.9-49.1-18.9H295.6h-0.1l-1.5,0l-1.4,0c-15.1,0-26,0-33.5,8
		c-7.3,7.7-7.7,18.8-7.7,36.4l0.5,123.8H138.8V181c0-8.2-3.2-15.8-8.9-21.6L54.4,83.9c-6.4-6.4-8.1-15.2-4.7-23.5
		c3.4-8.3,10.9-13.2,19.9-13.2H487.8 M487.8,35.1H69.6c-29.9,0-44.8,36-23.7,57.2l75.6,75.6c3.5,3.5,5.4,8.1,5.4,13.1v161.7H264
		l-0.5-135.9c0-31.8,2-32.3,29.2-32.3c0.9,0,1.9,0,2.8,0c0,0,0,0,0.1,0h127.7c15.2,0,29.8,5.6,41.1,15.8l28.2,25.6
		c12.6,11.4,19.9,27.8,19.9,44.8l0.1,477.6c0,5.1,3.5,13.1,7.1,15.3c4.2,2.7,8.8,4,13.6,4c7.2,0,14.5-3,20.7-9.2l79-78.9
		c10.9-10.9,18.9-25.6,18.9-41V213.1h-0.1c0-24.3-9.7-47.7-26.8-64.8l-95.2-95.8C518.7,41.4,503.7,35.1,487.8,35.1L487.8,35.1z"/>
</g>
<g id="Layer_2">
</g>
<path class="st0" d="M491,352.6c0.1-21-16.9-38.1-38-38.1h-401c-21.7,0-32.6,26.2-17.2,41.6l78.9,79c10.9,10.9,25.6,16.9,41,16.9
	h191.9c2.2,0,4,1.8,4,4l-0.8,439.6c0,21.7,27,32.6,42.8,17.4l81.1-78.9c11.2-10.9,17.5-25.6,17.5-41L491,352.6z"/>
</svg>
