<svg id="Layer_1" data-name="Layer 1" xmlns="http://www.w3.org/2000/svg" xmlns:xlink="http://www.w3.org/1999/xlink" viewBox="0 0 802.15 957.39"><defs><linearGradient id="linear-gradient" x1="951.96" y1="378.22" x2="951.96" y2="73" gradientUnits="userSpaceOnUse"><stop offset="0" stop-color="#181d1f" stop-opacity="0.8"/><stop offset="0.15" stop-color="#186593"/><stop offset="0.88" stop-color="#186593"/><stop offset="1" stop-color="#186593"/></linearGradient><linearGradient id="linear-gradient-2" x1="999.83" y1="493.28" x2="999.83" y2="841.99" gradientUnits="userSpaceOnUse"><stop offset="0" stop-color="#181d1f"/><stop offset="0.2" stop-color="#186593"/><stop offset="0.89" stop-color="#186593"/><stop offset="1" stop-color="#186593"/></linearGradient><linearGradient id="New_Gradient_Swatch_2" x1="1923.98" y1="841.53" x2="1923.98" y2="1021" gradientTransform="matrix(-1, 0, 0, 1, 2926.63, 0)" gradientUnits="userSpaceOnUse"><stop offset="0" stop-color="#2a332c"/><stop offset="0.07" stop-color="#693341"/><stop offset="0.13" stop-color="#9c3252"/><stop offset="0.18" stop-color="#bb325c"/><stop offset="0.21" stop-color="#c73260"/><stop offset="0.89" stop-color="#c73260"/><stop offset="1" stop-color="#c73260"/></linearGradient><linearGradient id="linear-gradient-3" x1="1004.16" y1="693.24" x2="1004.16" y2="361.01" gradientUnits="userSpaceOnUse"><stop offset="0" stop-color="#2a332c"/><stop offset="0.01" stop-color="#473336"/><stop offset="0.03" stop-color="#6e3343"/><stop offset="0.04" stop-color="#8e324d"/><stop offset="0.06" stop-color="#a73255"/><stop offset="0.08" stop-color="#b9325b"/><stop offset="0.1" stop-color="#c4325f"/><stop offset="0.12" stop-color="#c73260"/><stop offset="0.88" stop-color="#c73260"/><stop offset="1" stop-color="#c73260"/></linearGradient></defs><title>logo</title><path d="M718,378.22H836a13.34,13.34,0,0,0,13.34-13.41l-.63-111a33.94,33.94,0,0,1,33.88-34.07h171.65a64.44,64.44,0,0,1,43.27,16.69l29.77,27a63.75,63.75,0,0,1,20.94,47.24v54.23a13.34,13.34,0,0,0,13.34,13.34h120.06A13.34,13.34,0,0,0,1295,364.88V255.76a85.2,85.2,0,0,0-24.81-60.1l-103.8-104.3A62.33,62.33,0,0,0,1122.19,73H644.32c-31.45,0-47.21,38-25,60.27L699,212.91a19.48,19.48,0,0,1,5.7,13.77V364.88A13.34,13.34,0,0,0,718,378.22Z" transform="translate(-603.09 -68.31)" style="stroke:#fff;stroke-miterlimit:10;stroke-width:9.386138779943423px;fill:url(#linear-gradient)"/><path d="M1148.25,496.17V612.08a36.64,36.64,0,0,1-10.91,26.09l-46.82,46.16a37.91,37.91,0,0,1-26.62,10.91H872.45a21.16,21.16,0,0,1-21.16-21l-1-178.05H705.1l-.42,9.18V781.84A60.15,60.15,0,0,0,764.84,842h355.48a68.09,68.09,0,0,0,47.81-19.61l106.61-105.15a68,68,0,0,0,20.24-48.4V493.28Z" transform="translate(-603.09 -68.31)" style="stroke:#fff;stroke-miterlimit:10;stroke-width:9.386138779943423px;fill:url(#linear-gradient-2)"/><path d="M1076,841.53V995.77c0,22.43-27.12,33.67-43,17.81l-92.48-92.46a38.47,38.47,0,0,1-11.27-27.21V841.53Z" transform="translate(-603.09 -68.31)" style="stroke:#fff;stroke-miterlimit:10;stroke-width:9.386138779943423px;fill:url(#New_Gradient_Swatch_2)"/><path d="M1393,462.08l-83.17-83.19A61,61,0,0,0,1266.62,361H633.56c-22.93,0-34.41,27.72-18.2,43.93l83.17,83.19A61,61,0,0,0,741.7,506H922a4.12,4.12,0,0,1,4.12,4.12L926,692.88l144.74.36.33-183.12a4.12,4.12,0,0,1,4.12-4.12h299.54C1397.68,506,1409.17,478.29,1393,462.08Z" transform="translate(-603.09 -68.31)" style="stroke:#fff;stroke-miterlimit:10;stroke-width:9.386138779943423px;fill:url(#linear-gradient-3)"/></svg>