<?xml version="1.0" encoding="utf-8"?>
<!-- Generator: Adobe Illustrator 21.1.0, SVG Export Plug-In . SVG Version: 6.00 Build 0)  -->
<svg version="1.1" id="Layer_1" xmlns="http://www.w3.org/2000/svg" xmlns:xlink="http://www.w3.org/1999/xlink" x="0px" y="0px"
	 viewBox="0 0 802.2 957.4" style="enable-background:new 0 0 802.2 957.4;" xml:space="preserve">
<style type="text/css">
	.st0{fill:#C73260;stroke:#FFFFFF;stroke-width:17;stroke-miterlimit:10;}
	.st1{fill:#186593;stroke:#FFFFFF;stroke-width:17;stroke-miterlimit:10;}
</style>
<path class="st0" d="M716.3,339.7H515.5V465H623c14,0,27.4-5.6,37.3-15.5l71.8-71.9C746,363.6,736.1,339.7,716.3,339.7z"/>
<title>logo</title>
<g>
	<path class="st1" d="M265,604.2l-0.7-90.7c-0.1-10.3-8.5-18.7-18.8-18.7h-87.8c-10.4,0-18.8,8.4-18.8,18.8l-0.4,174.5
		c0,37.9,21.6,61,61,61h169.8c10.4,0,18.8-8.4,18.8-18.8v-89c0-10.4-8.4-18.8-18.8-18.8h-86C273.2,622.4,265,614.3,265,604.2z"/>
	<path class="st1" d="M616.1,246.8c0-22.1-8.8-43.4-24.4-59L505,100.6c-10.1-10.2-23.8-15.9-38.2-15.9H86
		c-27.2,0-40.8,32.8-21.6,52.1l68.8,68.8c3.2,3.2,4.9,7.4,4.9,11.9v147.2H263L262.5,241c0-29.9,1.9-29.4,29.2-29.4c0,0,0,0,0.1,0
		h116.3c13.8,0,27.1,5.1,37.4,14.4l25.7,23.3c11.5,10.4,18.1,25.3,18.1,40.8l0.1,434.9c0,4.6,3.2,11.9,6.5,13.9
		c9.5,6.1,21.9,4.6,31.2-4.7l71.9-71.8c9.9-9.9,17.2-23.3,17.2-37.3V246.8H616.1z"/>
</g>
<path class="st0" d="M74,339.1c-19.8,0-29.7,23.9-15.7,37.9l71.8,71.9c9.9,9.9,23.3,15.4,37.3,15.4h155.7c2,0,3.6,1.6,3.6,3.6
	l-0.1,326c0,8.8,3.5,17.3,9.7,23.5l79.9,79.9c13.7,13.7,37.1,4,37.1-15.4l1.4-508.1c0.1-19.1-15.4-34.7-34.6-34.7H74z"/>
<g id="Layer_2">
</g>
</svg>
