<?xml version="1.0" encoding="utf-8"?>
<!-- Generator: Adobe Illustrator 21.1.0, SVG Export Plug-In . SVG Version: 6.00 Build 0)  -->
<svg version="1.1" id="Layer_1" xmlns="http://www.w3.org/2000/svg" xmlns:xlink="http://www.w3.org/1999/xlink" x="0px" y="0px"
	 viewBox="0 0 612.3 802.2" style="enable-background:new 0 0 612.3 802.2;" xml:space="preserve">
<style type="text/css">
	.st0{fill:#FFFFFF;}
</style>
<g>
	<path class="st0" d="M110.7,73.3c-2.5,1.7-4.2-2.9-6.3-4.4c-14.9,3.2-27.9,3.7-35.1-5.3c-6.2,8-14.4,12-23.9,13.2
		c6.1,7.7,8.8,17.7,9.2,29.4c-19.7,7.2-35,19.2-49.3,31.9l7.6-19.8c0.5-1.3,4.1,1.6,5.9,2.7c5.7-10.1,12.6-18.4,23.6-21.7
		C25.6,78.1,23.6,57,39,35.7c-11.9-7.3-25.2-4.1-39,3.6c11.4-14.1,27.6-21.7,50.3-14.6C47,15.4,47.7,8.9,55.3,9.3
		c4.1,0.7,5.1,5.6,3.4,16.6c17,1.9,30.4-9.7,34.9-26c2.2,42.2-42.3,25.4-43.1,57.9c17.5-4.5,36.5,0.4,56.4,7.5
		c2.8,0.5,11-5.6,16.4-8.5C120.2,63.2,115.9,68.7,110.7,73.3z"/>
	<path class="st0" d="M123.2,38.3c-5.5,0-9.9-5.2-9.9-11.5c0-6.4,4.4-11.5,9.9-11.5s9.9,5.2,9.9,11.5
		C133.1,33.1,128.7,38.3,123.2,38.3z"/>
</g>
<g>
	<path class="st0" d="M228.8,126.1h-7.7V20.5h-45.5v105.6H168V12h60.9V126.1z"/>
	<path class="st0" d="M313.3,81.5c0,7.5-0.7,14.2-2.2,19.9c-1.5,5.8-3.6,10.6-6.3,14.5c-2.7,3.9-6.1,6.8-10,8.8c-3.9,2-8.3,3-13.2,3
		c-4.9,0-9.2-1-13.1-3c-3.9-2-7.3-4.9-10-8.8c-2.8-3.9-4.9-8.7-6.4-14.5c-1.5-5.8-2.3-12.4-2.3-19.9V56.8c0-7.5,0.7-14.2,2.2-19.9
		c1.5-5.8,3.6-10.6,6.4-14.5c2.8-3.9,6.1-6.9,10-8.9c3.9-2,8.3-3,13.1-3c4.9,0,9.3,1,13.2,3c3.9,2,7.3,5,10,8.9
		c2.7,3.9,4.9,8.8,6.3,14.5c1.5,5.8,2.2,12.4,2.2,19.9V81.5z M305.5,56.7c0-12.5-2.1-21.9-6.2-28.1c-4.1-6.3-10.1-9.4-17.9-9.4
		c-7.6,0-13.5,3.1-17.7,9.4c-4.2,6.3-6.3,15.6-6.3,28.1v24.8c0,12.5,2.1,22,6.4,28.3c4.3,6.3,10.2,9.4,17.8,9.4
		c7.8,0,13.8-3.1,17.8-9.4c4.1-6.3,6.1-15.7,6.1-28.3V56.7z"/>
	<path class="st0" d="M341.5,79.7v46.4h-7.7V12h28.5c4.6,0,8.6,0.8,12.1,2.5c3.5,1.7,6.4,4,8.8,7c2.4,3,4.1,6.6,5.3,10.8
		s1.8,8.8,1.8,13.8c0,5.3-0.6,10-1.8,14.2c-1.2,4.2-3,7.7-5.3,10.6c-2.4,2.9-5.3,5.1-8.8,6.6c-3.5,1.5-7.5,2.3-12.1,2.3H341.5z
		 M341.5,71.3h20.8c3.6,0,6.7-0.6,9.2-1.9c2.6-1.3,4.7-3,6.3-5.3c1.6-2.2,2.8-4.9,3.6-8c0.8-3.1,1.1-6.4,1.1-9.9
		c0-3.4-0.4-6.7-1.1-9.9c-0.8-3.1-2-5.9-3.6-8.2c-1.6-2.4-3.7-4.2-6.3-5.6c-2.6-1.4-5.6-2.1-9.2-2.1h-20.8V71.3z"/>
	<path class="st0" d="M464.3,20.5h-27.9v105.6h-7.7V20.5h-27.8V12h63.5V20.5z"/>
	<path class="st0" d="M519.3,94.2h-36.8l-8.4,31.9h-8L497.4,12h7.1l31.3,114.1h-8L519.3,94.2z M484.8,85.8h32.3l-16.2-61.2
		L484.8,85.8z"/>
	<path class="st0" d="M612.3,12v114.1h-7.7V20.5h-33.7l-1.4,43.2c-0.3,11-0.9,20.5-1.7,28.4c-0.8,7.9-2.1,14.4-3.9,19.4
		c-1.8,5-4.1,8.8-6.9,11.1c-2.9,2.4-6.4,3.6-10.7,3.6h-2.5v-8.3h2.2c2.7,0,5.1-0.9,7-2.6c1.9-1.7,3.5-4.7,4.7-8.8
		c1.2-4.2,2.2-9.7,2.8-16.7c0.7-6.9,1.2-15.6,1.5-26.1l1.7-51.6H612.3z"/>
</g>
</svg>
